/* XPM */
static const char *bitcoin16_xpm[] = {
/* columns rows colors chars-per-pixel */
"16 16 141 2",
"   c Black",
"e  c #CCCC66",
"x. c #99822A",
"u. c #C6B871",
"O  c #8A6D0B",
"W  c #FAE6A6",
"Z  c #E3C68E",
"r. c #997F2A",
";. c #D0BD71",
"N  c #F3D36A",
"8. c #B2994C",
"2. c #C1AB66",
"@. c #E4D6A2",
"}  c #EEE1AE",
"/  c #BF9610",
"v  c #BF9611",
"s  c #D8BC52",
"k  c #BF9613",
"!  c #BF930B",
"(  c #BF9616",
"l  c #BF930C",
",  c #9C7D1A",
"=  c #9C7D1B",
"0  c #C9A73B",
"n  c #ECC958",
"%  c #BF9F40",
"f. c #9F872B",
"P  c #C29A18",
"c  c #BD930F",
"t  c #C7A73A",
"Q  c #EADB97",
"3  c #BFBF40",
"4. c #BF9F60",
"p. c #9D8427",
"D  c #CFAF40",
"9. c #AC9646",
"q  c #C5A437",
"k. c #896B0E",
"e. c #A28834",
"$. c #D4C585",
"0. c #B19A4F",
"I  c #B99000",
"3. c #C5B06B",
"6  c #B69231",
":  c #D4BF7F",
"g. c #8C7218",
"`  c #F7EABA",
"w  c #CC9933",
"s. c #9B812C",
"G  c #C4B13B",
"]  c #C69C0E",
"[  c #BC940D",
"*. c #C19812",
"m  c #EECE5C",
"p  c #D0B34C",
"u  c #DAB848",
"1. c #AAAA2A",
"J  c #F8D971",
"5. c #B29B51",
"R  c #E4C972",
"B  c #BF950B",
"_  c #F8E5A4",
"b  c #BF950D",
"x  c #BF950F",
"X  c #927412",
"<  c #9C7C17",
";  c #D8C476",
"o  c #8D6D0E",
" . c #E7D9A5",
"S  c #C2960C",
"+  c #8B6D0B",
"-. c #C29919",
"L  c #EAD47F",
")  c #E3D683",
"E  c #F9E08B",
"K  c #F9E08C",
"g  c #C8B649",
"l. c #896D10",
"a. c #987F27",
"h  c #C09611",
"C  c #C09613",
"-  c #A28422",
"*  c #9D7D19",
"Y  c #C5A02C",
"i  c #D4B244",
".  c #9D7D1B",
"6. c #AC9548",
"{  c #BE960C",
",. c #C5AF6D",
">. c #D4C184",
"+. c #BE9612",
"X. c #BE9309",
"8  c #AF9027",
"|  c #F7E9BA",
"V  c #C39A19",
"#  c #917212",
"d  c #F0CD5C",
"2  c #C6AA39",
"U  c #BC9000",
"H  c #EED369",
"t. c #998028",
"h. c #8A6E12",
">  c #A38524",
"<. c #C1AC67",
"w. c #C6AA55",
"o. c #FFFF7F",
"j  c #BF9712",
"z  c #CEB553",
"5  c #B09128",
"r  c #C4A437",
"@  c #8D6F0E",
"d. c #A18834",
"7  c #B89C2A",
"=. c #C9A236",
"A  c #BD9101",
"F  c #BD9102",
"q. c #CCB24C",
".. c #E7D8A2",
"T  c #BD9103",
"O. c #BD9105",
"~  c #BD9106",
"&  c #A48620",
"y. c #9F8226",
"a  c #DBB849",
"M  c #F9D970",
"'  c #EFE3AF",
"7. c #B19B43",
"^  c #BB8E00",
":. c #D6C389",
"%. c #D6C38A",
"z. c #8E7318",
"j. c #896C0E",
"&. c #CFBF78",
"9  c #B6962F",
"f  c #EDCB59",
"i. c #D2C369",
"y  c #D9B851",
"$  c #9B821E",
"#. c #E8D9A5",
"4  c #B4932B",
"1  c #A5841F",
/* pixels */
"        . X o O + @ # $         ",
"    % & * = - ; : > , < 1 2     ",
"  3 4 5 6             7 8 9 2   ",
"  0 q w                 e r t   ",
"y u i                     p a s ",
"d f   g h j k l z x c v b   n m ",
"M N     B V   C Z A S D F G H J ",
"K L     B P v I   U S Y T e R E ",
"W Q     B ! ~ ^   U x / (   ) _ ",
"` '     B V ] [   U {       } | ",
" ...    X.j     o.O.+.      @.#.",
"$.%.&.G *.*.    =.*.-.    ;.:.>.",
"  ,.<.1.                e 2.3.  ",
"  4.5.6.7.            8.9.0.q.  ",
"    w.e.r.t.y.u.i.p.a.s.d.8.    ",
"        f.g.h.j.k.l.z.x.        "
};
