/* XPM */
static const char *bitcoin32_xpm[] = {
/* columns rows colors chars-per-pixel */
"32 32 363 2",
"   c Black",
"y  c #9F801C",
"&  c #997E20",
"lo c #937921",
"4X c #E8DC94",
"L  c #BA9831",
"QX c #C6A235",
"T  c #C0A035",
"TX c #C3A73C",
"`  c #CCAA3D",
"v  c #B79D3B",
"Ro c #A8923C",
"mo c #B7A341",
"2X c #F4E3A5",
"G  c #BDA842",
"uX c #EEE1A7",
"%o c #BAA745",
"|  c #D2B247",
"d  c #BDA849",
"#. c #DEBC4D",
"to c #B7A34E",
"&. c #EDCA57",
"jX c #F1E5B5",
"ro c #BAA452",
",o c #B49F53",
"<o c #B7A355",
";o c #BDA857",
"c. c #F0D165",
"&X c #BF9208",
"h. c #BC9108",
"aX c #BF950C",
"(X c #CCB66D",
"1  c #8C6C08",
"2  c #8F700D",
"p  c #987912",
"iX c #C29918",
"Jo c #896E12",
"$  c #8C6F12",
"%  c #8F7315",
"Go c #8C7217",
"x  c #A1821A",
"a. c #DECE84",
"e. c #BF9B21",
"_. c #FCE188",
"+X c #F6DF8D",
",. c #DECE8C",
"To c #987F26",
"co c #A18B2D",
"io c #9E8432",
"t  c #AD9236",
"<X c #FCE7A2",
"^  c #CEAC43",
"k  c #B69E41",
"BX c #EADEAA",
"o. c #E3BF4E",
"eX c #FCEAB0",
"A  c #C5AF50",
"*. c #E0C153",
"$. c #DDBD52",
":o c #B39D52",
"r  c #C5AF57",
"~  c #D1B95D",
"p. c #BE9000",
"I. c #BB8F02",
"B. c #BB9208",
"e  c #FFEECC",
"i. c #BE930A",
"5  c #B6B66D",
"GX c #D1D174",
"w. c #D4C671",
",  c #8B6D09",
"t. c #C19713",
":. c #C19714",
"Oo c #C8B372",
")o c #886C0D",
"s  c #D1B974",
"|X c #C8B373",
"Po c #8B6D0E",
"{X c #CEBE77",
"3. c #BE991D",
"SX c #C19A1E",
"V  c #AC8D24",
"KX c #D7C788",
"Vo c #947921",
"qX c #C49E28",
"`o c #947C23",
"No c #9D8228",
"S  c #B8972C",
"$X c #E9DC96",
"Q  c #C1A033",
"Y  c #C1A034",
"b  c #B89A35",
"'  c #CDAA3B",
"/  c #CDAA3C",
"J. c #CAA63D",
"PX c #E3D4A0",
"no c #E6DEA4",
"sX c #ECE0A8",
"tX c #F2E5B0",
"0o c #AF9D4A",
"3o c #B59F54",
"z. c #F7D360",
"0. c #F7D361",
"w  c #C4AA5B",
"K. c #BD9100",
"(. c #BD9102",
"D. c #F1D169",
" X c #BD9106",
",X c #DFCE71",
"oX c #BD940D",
"Xo c #CAB871",
"F. c #F4D877",
"). c #E8D17B",
"-. c #C09818",
"Io c #8A6E11",
"(o c #8A6E12",
"s. c #C0981A",
"~o c #8A6E13",
"o  c #907316",
"M. c #C09B1F",
"g  c #A2821A",
"!X c #C39C22",
"a  c #A58624",
"ko c #937A23",
"C  c #AE8F28",
"4  c #A88D28",
"M  c #AE8F29",
"Zo c #967B26",
"B  c #B19633",
"VX c #E5D698",
"bX c #C6A639",
"yo c #A58C38",
"n. c #C6A63D",
"#X c #FDE7A3",
"do c #A58F3B",
"rX c #F4E4A7",
")  c #C9AD46",
"k. c #DBB649",
"7o c #A89042",
"gX c #EEE2AE",
"9o c #B19C48",
"eo c #AB9446",
"5. c #E1C159",
"q. c #F3D05E",
"yX c #FDF0BF",
"4. c #FFAA55",
"1o c #BDAF5F",
"$o c #BDA962",
"DX c #BC9205",
"MX c #BF930A",
"!. c #EAD374",
"I  c #DBB66D",
"2. c #BF9610",
"oo c #C6B26F",
">  c #8C6D0A",
"-X c #BF9613",
"i  c #987711",
"8  c #987712",
"5X c #C29A19",
"*  c #C9BC79",
"!o c #896C11",
"/. c #DBC87F",
"[X c #D2BF83",
"3  c #9B7E1E",
"Wo c #957C1F",
"f  c #A78821",
"_X c #D2BF85",
"|. c #C59E27",
"zo c #988026",
"'. c #F6E092",
"R  c #BC9B2C",
"q  c #A78B2C",
"uo c #9E8532",
"po c #A18934",
"<. c #C8A83F",
"O. c #DDBB4A",
"so c #AD9C45",
"8o c #AA9243",
"bo c #DEDEAD",
" . c #D1B44D",
"fX c #F3E5AF",
"+. c #AAAA55",
"l. c #F2CE5D",
"r. c #BE9100",
"%X c #BE9102",
"*o c #BCA75F",
"JX c #DDBB66",
"d. c #BB9008",
".o c #C8B469",
"V. c #C1950C",
"EX c #C19812",
"G. c #FEDE7A",
";. c #C19814",
"HX c #BE9714",
"{. c #C19815",
"#  c #8B6E10",
"IX c #CEB679",
"Yo c #8B7115",
"T. c #B8951C",
"-  c #977817",
"Qo c #8E7217",
"c  c #A6861F",
"0  c #A08422",
"Co c #947A23",
"[. c #E9D78E",
"xo c #9A7F25",
"jo c #947A24",
"Mo c #A38829",
"UX c #DDCA95",
"=  c #AF9233",
"U  c #C1A136",
"Ao c #A08732",
"N  c #B59735",
"Do c #AC9A3B",
"fo c #A38B37",
"C. c #CAAA41",
"{  c #D6B445",
"vo c #BBA244",
"qo c #A99342",
"wo c #A99042",
"L. c #CAAA49",
"vX c #ECDEAC",
"6o c #AC9446",
"4o c #BEAC59",
".. c #D3BC5E",
"S. c #F1D266",
"E  c #D3BC64",
"=o c #BEA962",
"U. c #BD9206",
"7X c #BD920A",
"/o c #846708",
"^o c #846709",
":  c #8D6D0A",
"'X c #CDB772",
"`X c #CDBA74",
">. c #C09614",
"@  c #8A6C0E",
"m. c #C39A19",
"7  c #997A15",
"`. c #F4DC84",
"9X c #C39D20",
"Q. c #FDE288",
"g. c #C39D24",
"]X c #D3BF84",
"z  c #A58724",
"/X c #D9C78B",
"YX c #D9C78C",
"K  c #B7962D",
"Fo c #99802A",
"]. c #FDE596",
"J  c #B79931",
"xX c #E2D395",
"^X c #DCCB95",
"W  c #C09F35",
"H  c #BDA139",
"(  c #CCA93D",
"_  c #CCAF42",
"LX c #E5D7A5",
"3X c #FDEBB0",
"kX c #EEE3B3",
".  c #B19D4E",
"x. c #E7CA5C",
"9. c #E7CA5E",
"Y. c #BF9100",
"hX c #FAEDC6",
"So c #CCBB66",
"v. c #FCDA6B",
"y. c #B68E04",
"*X c #BC9005",
"5o c #BDB065",
"=X c #BC9006",
"#o c #BDA765",
":X c #BF940D",
"+o c #C9B46E",
"j. c #BF9715",
"-o c #CCBB77",
"Ho c #896D12",
"O  c #8C6E12",
"_o c #8C7114",
"W. c #F3DA81",
"h  c #A18119",
"u  c #9E801D",
"NX c #CCB27F",
"}. c #C29E28",
"n  c #AD8E25",
"j  c #A78927",
"6X c #DBDB92",
"wX c #E7D992",
"X  c #9E8328",
"1X c #F6E19A",
"ho c #A18731",
"~X c #FFFFAA",
">X c #CBAA41",
"}  c #D7B445",
"X. c #DDBC50",
"=. c #CBAD4E",
"Z  c #C2AD52",
"2o c #B39C4F",
"&o c #BCB159",
">o c #B39C54",
"P. c #FFDBB6",
"dX c #FCEFBF",
"'o c #BFB560",
"Eo c #BCAE5E",
"f. c #B28E00",
"b. c #F2D267",
"Z. c #BE9205",
"A. c #D7C96B",
"@o c #BFA964",
"mX c #BB9108",
"pX c #BB940D",
"R. c #ECD372",
"<  c #8B6C08",
"WX c #BE9513",
"1. c #C19613",
"8. c #D7C979",
";  c #91710F",
"u. c #BE9817",
"nX c #C19917",
"9  c #9D7E1B",
")X c #D1BE82",
"XX c #C19F26",
"m  c #AC8C23",
"6  c #A38625",
"F  c #B59529",
"AX c #DDCE8D",
"Bo c #9A8028",
"D  c #B8962D",
"!  c #C1A235",
"@X c #F5E29D",
"l  c #AF9637",
"@. c #FFFFFF",
"CX c #E3D39F",
"P  c #BEAA41",
"FX c #C4AC41",
"]  c #CDAC42",
"ZX c #E6D7A5",
"ao c #AF9C44",
"go c #B29A47",
"zX c #EFE3B1",
"7. c #EBC856",
"cX c #EFE3B4",
"6. c #EEC957",
"%. c #EBC857",
"[  c #D3BD5F",
"N. c #BD9000",
".X c #BA8F00",
";X c #BD9001",
"lX c #FBEDC6",
"OX c #DFCA69",
"^. c #BA8F06",
"H. c #EED572",
"E. c #F4D774",
"}X c #C7B36F",
"RX c #C09712",
" o c #C7B371",
"8X c #C09714",
"+  c #8A6D0E",
"Lo c #8A6D10",
"Ko c #8A6D11",
"Uo c #8A6D12",
"0X c #C09A1B",
"~. c #C09A1C",
/* pixels */
"                    . X o O + + @ # $ % & *                     ",
"                = - ; : : > , < 1 1 > > : 2 3 4                 ",
"            5 6 7 8 8 9 0 q w e e r t y u i 8 p a s             ",
"          d f g h j k                     l z h x c v           ",
"        b n m M N                             B V m C Z         ",
"      A S D F G                                 H J K L P       ",
"    I U Y T R                                     E W Q ! ~     ",
"    ^ / ( )                                         _ ` ' ]     ",
"  [ { } |                                              .} { ..  ",
"  X.o.O.+.                                            @.#.o.$.  ",
"s %.&.*.      =.-.;.;.;.:.:.:.>.,.<.1.;.:.:.;.2.3.4.    5.6.7.8.",
"9.0.q.w.        e.r.t.y.y.u.i.p.a.  s.r.d.f.g.h.r.j.    k.l.z.x.",
"c.v.b.          n.r.m.      M.N.a.  B.r.V.    C.N.Z.A.    S.v.D.",
"F.G.H.          J.K.m.      k.L.P.  I.r.V.    @.U.Y.T.    R.G.E.",
"W.Q.!.          J.K.m.    ~.^.      I.r.V.    /.(.(.E     )._.`.",
"'.].[.          J.K.{.}.|. X.X      I.r.V.    XXr.oX      OX].+X",
"@X#X$X          J.K.%X&X Xr..X      I.r.*X=X-X;X:X>X      ,X<X1X",
"2X3X4X          J.K.5X  6X7X.X      I.r.8X9X0XqXk.        wXeXrX",
"tXyXuX          J.K.m.    iXpX      I.r.aX                sXdXfX",
"gXhXjX          J.K.m.              I.r.V.                kXlXzX",
"xXcXvX8.        bXr.nX              mXr.MX              NXBXcXVX",
"~ CXZXAX      @.SXr.DXFX          GX2.r.HXJX            KXLXPXIX",
"  KXUXYX6X    TXRXEXEXWX          QXEXEXEX!X          ~XYX^X/X  ",
"  (X)X_X`X                                            'X]X[X{X  ",
"    }X|X o.o                                        XoooOo+o    ",
"    I @o#o$o%o                                    &o*o#o=o-o    ",
"      ;o:o>o,o<o                                1o2o>o3o4o      ",
"        5o6o7o8o9o                            0oqowoeoro        ",
"          toyouoiopoao                    sodoiouofogo          ",
"            ~ hojokolozoxocovobonomoMoNoBoVoCoZoAoSo            ",
"                DoFoGoHoJoKoLoPoPoLoIoUoHoYoToRo                ",
"                    EoWoQo!o~o^o/o(o)o_o`o'o                    "
};
